ISO-10303-21;
HEADER;
/* Generated by software containing ST-Developer
 * from STEP Tools, Inc. (www.steptools.com) 
 */

FILE_DESCRIPTION(
/* description */ ('',
'CAx-IF Rec.Pracs.---Representation and Presentation of Product Manufa
cturing Information (PMI)---4.0---2014-10-13'),
/* implementation_level */ '2;1');

FILE_NAME(
/* name */ '24 LC Vial Tray v1.step',
/* time_stamp */ '2025-02-24T14:57:40Z',
/* author */ (''),
/* organization */ (''),
/* preprocessor_version */ 'ST-DEVELOPER v20',
/* originating_system */ 'Autodesk Translation Framework v13.20.0.188',

/* authorisation */ '');

FILE_SCHEMA (('AP242_MANAGED_MODEL_BASED_3D_ENGINEERING_MIM_LF { 1 0 10303 442 1 1 4 }'));
ENDSEC;

DATA;
#10=MECHANICAL_DESIGN_GEOMETRIC_PRESENTATION_REPRESENTATION('',(#13),#1403);
#11=SHAPE_REPRESENTATION_RELATIONSHIP('SRR','None',#1410,#12);
#12=ADVANCED_BREP_SHAPE_REPRESENTATION('',(#14),#1402);
#13=STYLED_ITEM('',(#1419),#14);
#14=MANIFOLD_SOLID_BREP('Body1',#783);
#15=FACE_BOUND('',#184,.T.);
#16=FACE_BOUND('',#185,.T.);
#17=FACE_BOUND('',#186,.T.);
#18=FACE_BOUND('',#187,.T.);
#19=FACE_BOUND('',#188,.T.);
#20=FACE_BOUND('',#189,.T.);
#21=FACE_BOUND('',#190,.T.);
#22=FACE_BOUND('',#191,.T.);
#23=FACE_BOUND('',#192,.T.);
#24=FACE_BOUND('',#193,.T.);
#25=FACE_BOUND('',#194,.T.);
#26=FACE_BOUND('',#195,.T.);
#27=FACE_BOUND('',#196,.T.);
#28=FACE_BOUND('',#197,.T.);
#29=FACE_BOUND('',#198,.T.);
#30=FACE_BOUND('',#199,.T.);
#31=FACE_BOUND('',#200,.T.);
#32=FACE_BOUND('',#201,.T.);
#33=FACE_BOUND('',#202,.T.);
#34=FACE_BOUND('',#203,.T.);
#35=FACE_BOUND('',#204,.T.);
#36=FACE_BOUND('',#205,.T.);
#37=FACE_BOUND('',#206,.T.);
#38=FACE_BOUND('',#207,.T.);
#39=PLANE('',#800);
#40=PLANE('',#804);
#41=PLANE('',#808);
#42=PLANE('',#812);
#43=PLANE('',#816);
#44=PLANE('',#820);
#45=PLANE('',#824);
#46=PLANE('',#828);
#47=PLANE('',#832);
#48=PLANE('',#836);
#49=PLANE('',#840);
#50=PLANE('',#844);
#51=PLANE('',#848);
#52=PLANE('',#852);
#53=PLANE('',#856);
#54=PLANE('',#860);
#55=PLANE('',#864);
#56=PLANE('',#868);
#57=PLANE('',#872);
#58=PLANE('',#876);
#59=PLANE('',#880);
#60=PLANE('',#884);
#61=PLANE('',#888);
#62=PLANE('',#892);
#63=PLANE('',#893);
#64=PLANE('',#897);
#65=PLANE('',#901);
#66=PLANE('',#905);
#67=PLANE('',#909);
#68=PLANE('',#910);
#69=FACE_OUTER_BOUND('',#127,.T.);
#70=FACE_OUTER_BOUND('',#128,.T.);
#71=FACE_OUTER_BOUND('',#129,.T.);
#72=FACE_OUTER_BOUND('',#130,.T.);
#73=FACE_OUTER_BOUND('',#131,.T.);
#74=FACE_OUTER_BOUND('',#132,.T.);
#75=FACE_OUTER_BOUND('',#133,.T.);
#76=FACE_OUTER_BOUND('',#134,.T.);
#77=FACE_OUTER_BOUND('',#135,.T.);
#78=FACE_OUTER_BOUND('',#136,.T.);
#79=FACE_OUTER_BOUND('',#137,.T.);
#80=FACE_OUTER_BOUND('',#138,.T.);
#81=FACE_OUTER_BOUND('',#139,.T.);
#82=FACE_OUTER_BOUND('',#140,.T.);
#83=FACE_OUTER_BOUND('',#141,.T.);
#84=FACE_OUTER_BOUND('',#142,.T.);
#85=FACE_OUTER_BOUND('',#143,.T.);
#86=FACE_OUTER_BOUND('',#144,.T.);
#87=FACE_OUTER_BOUND('',#145,.T.);
#88=FACE_OUTER_BOUND('',#146,.T.);
#89=FACE_OUTER_BOUND('',#147,.T.);
#90=FACE_OUTER_BOUND('',#148,.T.);
#91=FACE_OUTER_BOUND('',#149,.T.);
#92=FACE_OUTER_BOUND('',#150,.T.);
#93=FACE_OUTER_BOUND('',#151,.T.);
#94=FACE_OUTER_BOUND('',#152,.T.);
#95=FACE_OUTER_BOUND('',#153,.T.);
#96=FACE_OUTER_BOUND('',#154,.T.);
#97=FACE_OUTER_BOUND('',#155,.T.);
#98=FACE_OUTER_BOUND('',#156,.T.);
#99=FACE_OUTER_BOUND('',#157,.T.);
#100=FACE_OUTER_BOUND('',#158,.T.);
#101=FACE_OUTER_BOUND('',#159,.T.);
#102=FACE_OUTER_BOUND('',#160,.T.);
#103=FACE_OUTER_BOUND('',#161,.T.);
#104=FACE_OUTER_BOUND('',#162,.T.);
#105=FACE_OUTER_BOUND('',#163,.T.);
#106=FACE_OUTER_BOUND('',#164,.T.);
#107=FACE_OUTER_BOUND('',#165,.T.);
#108=FACE_OUTER_BOUND('',#166,.T.);
#109=FACE_OUTER_BOUND('',#167,.T.);
#110=FACE_OUTER_BOUND('',#168,.T.);
#111=FACE_OUTER_BOUND('',#169,.T.);
#112=FACE_OUTER_BOUND('',#170,.T.);
#113=FACE_OUTER_BOUND('',#171,.T.);
#114=FACE_OUTER_BOUND('',#172,.T.);
#115=FACE_OUTER_BOUND('',#173,.T.);
#116=FACE_OUTER_BOUND('',#174,.T.);
#117=FACE_OUTER_BOUND('',#175,.T.);
#118=FACE_OUTER_BOUND('',#176,.T.);
#119=FACE_OUTER_BOUND('',#177,.T.);
#120=FACE_OUTER_BOUND('',#178,.T.);
#121=FACE_OUTER_BOUND('',#179,.T.);
#122=FACE_OUTER_BOUND('',#180,.T.);
#123=FACE_OUTER_BOUND('',#181,.T.);
#124=FACE_OUTER_BOUND('',#182,.T.);
#125=FACE_OUTER_BOUND('',#183,.T.);
#126=FACE_OUTER_BOUND('',#208,.T.);
#127=EDGE_LOOP('',(#505,#506,#507,#508));
#128=EDGE_LOOP('',(#509));
#129=EDGE_LOOP('',(#510,#511,#512,#513));
#130=EDGE_LOOP('',(#514));
#131=EDGE_LOOP('',(#515,#516,#517,#518));
#132=EDGE_LOOP('',(#519));
#133=EDGE_LOOP('',(#520,#521,#522,#523));
#134=EDGE_LOOP('',(#524));
#135=EDGE_LOOP('',(#525,#526,#527,#528));
#136=EDGE_LOOP('',(#529));
#137=EDGE_LOOP('',(#530,#531,#532,#533));
#138=EDGE_LOOP('',(#534));
#139=EDGE_LOOP('',(#535,#536,#537,#538));
#140=EDGE_LOOP('',(#539));
#141=EDGE_LOOP('',(#540,#541,#542,#543));
#142=EDGE_LOOP('',(#544));
#143=EDGE_LOOP('',(#545,#546,#547,#548));
#144=EDGE_LOOP('',(#549));
#145=EDGE_LOOP('',(#550,#551,#552,#553));
#146=EDGE_LOOP('',(#554));
#147=EDGE_LOOP('',(#555,#556,#557,#558));
#148=EDGE_LOOP('',(#559));
#149=EDGE_LOOP('',(#560,#561,#562,#563));
#150=EDGE_LOOP('',(#564));
#151=EDGE_LOOP('',(#565,#566,#567,#568));
#152=EDGE_LOOP('',(#569));
#153=EDGE_LOOP('',(#570,#571,#572,#573));
#154=EDGE_LOOP('',(#574));
#155=EDGE_LOOP('',(#575,#576,#577,#578));
#156=EDGE_LOOP('',(#579));
#157=EDGE_LOOP('',(#580,#581,#582,#583));
#158=EDGE_LOOP('',(#584));
#159=EDGE_LOOP('',(#585,#586,#587,#588));
#160=EDGE_LOOP('',(#589));
#161=EDGE_LOOP('',(#590,#591,#592,#593));
#162=EDGE_LOOP('',(#594));
#163=EDGE_LOOP('',(#595,#596,#597,#598));
#164=EDGE_LOOP('',(#599));
#165=EDGE_LOOP('',(#600,#601,#602,#603));
#166=EDGE_LOOP('',(#604));
#167=EDGE_LOOP('',(#605,#606,#607,#608));
#168=EDGE_LOOP('',(#609));
#169=EDGE_LOOP('',(#610,#611,#612,#613));
#170=EDGE_LOOP('',(#614));
#171=EDGE_LOOP('',(#615,#616,#617,#618));
#172=EDGE_LOOP('',(#619));
#173=EDGE_LOOP('',(#620,#621,#622,#623));
#174=EDGE_LOOP('',(#624));
#175=EDGE_LOOP('',(#625,#626,#627,#628));
#176=EDGE_LOOP('',(#629,#630,#631,#632));
#177=EDGE_LOOP('',(#633,#634,#635,#636));
#178=EDGE_LOOP('',(#637,#638,#639,#640));
#179=EDGE_LOOP('',(#641,#642,#643,#644));
#180=EDGE_LOOP('',(#645,#646,#647,#648));
#181=EDGE_LOOP('',(#649,#650,#651,#652));
#182=EDGE_LOOP('',(#653,#654,#655,#656));
#183=EDGE_LOOP('',(#657,#658,#659,#660,#661,#662,#663,#664));
#184=EDGE_LOOP('',(#665));
#185=EDGE_LOOP('',(#666));
#186=EDGE_LOOP('',(#667));
#187=EDGE_LOOP('',(#668));
#188=EDGE_LOOP('',(#669));
#189=EDGE_LOOP('',(#670));
#190=EDGE_LOOP('',(#671));
#191=EDGE_LOOP('',(#672));
#192=EDGE_LOOP('',(#673));
#193=EDGE_LOOP('',(#674));
#194=EDGE_LOOP('',(#675));
#195=EDGE_LOOP('',(#676));
#196=EDGE_LOOP('',(#677));
#197=EDGE_LOOP('',(#678));
#198=EDGE_LOOP('',(#679));
#199=EDGE_LOOP('',(#680));
#200=EDGE_LOOP('',(#681));
#201=EDGE_LOOP('',(#682));
#202=EDGE_LOOP('',(#683));
#203=EDGE_LOOP('',(#684));
#204=EDGE_LOOP('',(#685));
#205=EDGE_LOOP('',(#686));
#206=EDGE_LOOP('',(#687));
#207=EDGE_LOOP('',(#688));
#208=EDGE_LOOP('',(#689,#690,#691,#692,#693,#694,#695,#696));
#209=LINE('',#1186,#249);
#210=LINE('',#1193,#250);
#211=LINE('',#1200,#251);
#212=LINE('',#1207,#252);
#213=LINE('',#1214,#253);
#214=LINE('',#1221,#254);
#215=LINE('',#1228,#255);
#216=LINE('',#1235,#256);
#217=LINE('',#1242,#257);
#218=LINE('',#1249,#258);
#219=LINE('',#1256,#259);
#220=LINE('',#1263,#260);
#221=LINE('',#1270,#261);
#222=LINE('',#1277,#262);
#223=LINE('',#1284,#263);
#224=LINE('',#1291,#264);
#225=LINE('',#1298,#265);
#226=LINE('',#1305,#266);
#227=LINE('',#1312,#267);
#228=LINE('',#1319,#268);
#229=LINE('',#1326,#269);
#230=LINE('',#1333,#270);
#231=LINE('',#1340,#271);
#232=LINE('',#1347,#272);
#233=LINE('',#1353,#273);
#234=LINE('',#1355,#274);
#235=LINE('',#1357,#275);
#236=LINE('',#1358,#276);
#237=LINE('',#1364,#277);
#238=LINE('',#1367,#278);
#239=LINE('',#1369,#279);
#240=LINE('',#1370,#280);
#241=LINE('',#1376,#281);
#242=LINE('',#1379,#282);
#243=LINE('',#1381,#283);
#244=LINE('',#1382,#284);
#245=LINE('',#1388,#285);
#246=LINE('',#1391,#286);
#247=LINE('',#1393,#287);
#248=LINE('',#1394,#288);
#249=VECTOR('',#917,6.25);
#250=VECTOR('',#926,6.25);
#251=VECTOR('',#935,6.25);
#252=VECTOR('',#944,6.25);
#253=VECTOR('',#953,6.25);
#254=VECTOR('',#962,6.25);
#255=VECTOR('',#971,6.25);
#256=VECTOR('',#980,6.25);
#257=VECTOR('',#989,6.25);
#258=VECTOR('',#998,6.25);
#259=VECTOR('',#1007,6.25);
#260=VECTOR('',#1016,6.25);
#261=VECTOR('',#1025,6.25);
#262=VECTOR('',#1034,6.25);
#263=VECTOR('',#1043,6.25);
#264=VECTOR('',#1052,6.25);
#265=VECTOR('',#1061,6.25);
#266=VECTOR('',#1070,6.25);
#267=VECTOR('',#1079,6.25);
#268=VECTOR('',#1088,6.25);
#269=VECTOR('',#1097,6.25);
#270=VECTOR('',#1106,6.25);
#271=VECTOR('',#1115,6.25);
#272=VECTOR('',#1124,6.25);
#273=VECTOR('',#1131,10.);
#274=VECTOR('',#1132,10.);
#275=VECTOR('',#1133,10.);
#276=VECTOR('',#1134,10.);
#277=VECTOR('',#1141,10.);
#278=VECTOR('',#1144,10.);
#279=VECTOR('',#1145,10.);
#280=VECTOR('',#1146,10.);
#281=VECTOR('',#1153,10.);
#282=VECTOR('',#1156,10.);
#283=VECTOR('',#1157,10.);
#284=VECTOR('',#1158,10.);
#285=VECTOR('',#1165,10.);
#286=VECTOR('',#1168,10.);
#287=VECTOR('',#1169,10.);
#288=VECTOR('',#1170,10.);
#289=CIRCLE('',#798,6.25);
#290=CIRCLE('',#799,6.25);
#291=CIRCLE('',#802,6.25);
#292=CIRCLE('',#803,6.25);
#293=CIRCLE('',#806,6.25);
#294=CIRCLE('',#807,6.25);
#295=CIRCLE('',#810,6.25);
#296=CIRCLE('',#811,6.25);
#297=CIRCLE('',#814,6.25);
#298=CIRCLE('',#815,6.25);
#299=CIRCLE('',#818,6.25);
#300=CIRCLE('',#819,6.25);
#301=CIRCLE('',#822,6.25);
#302=CIRCLE('',#823,6.25);
#303=CIRCLE('',#826,6.25);
#304=CIRCLE('',#827,6.25);
#305=CIRCLE('',#830,6.25);
#306=CIRCLE('',#831,6.25);
#307=CIRCLE('',#834,6.25);
#308=CIRCLE('',#835,6.25);
#309=CIRCLE('',#838,6.25);
#310=CIRCLE('',#839,6.25);
#311=CIRCLE('',#842,6.25);
#312=CIRCLE('',#843,6.25);
#313=CIRCLE('',#846,6.25);
#314=CIRCLE('',#847,6.25);
#315=CIRCLE('',#850,6.25);
#316=CIRCLE('',#851,6.25);
#317=CIRCLE('',#854,6.25);
#318=CIRCLE('',#855,6.25);
#319=CIRCLE('',#858,6.25);
#320=CIRCLE('',#859,6.25);
#321=CIRCLE('',#862,6.25);
#322=CIRCLE('',#863,6.25);
#323=CIRCLE('',#866,6.25);
#324=CIRCLE('',#867,6.25);
#325=CIRCLE('',#870,6.25);
#326=CIRCLE('',#871,6.25);
#327=CIRCLE('',#874,6.25);
#328=CIRCLE('',#875,6.25);
#329=CIRCLE('',#878,6.25);
#330=CIRCLE('',#879,6.25);
#331=CIRCLE('',#882,6.25);
#332=CIRCLE('',#883,6.25);
#333=CIRCLE('',#886,6.25);
#334=CIRCLE('',#887,6.25);
#335=CIRCLE('',#890,6.25);
#336=CIRCLE('',#891,6.25);
#337=CIRCLE('',#895,2.00000000000001);
#338=CIRCLE('',#896,2.00000000000001);
#339=CIRCLE('',#899,2.);
#340=CIRCLE('',#900,2.);
#341=CIRCLE('',#903,2.);
#342=CIRCLE('',#904,2.);
#343=CIRCLE('',#907,1.99999999999999);
#344=CIRCLE('',#908,1.99999999999999);
#345=VERTEX_POINT('',#1183);
#346=VERTEX_POINT('',#1185);
#347=VERTEX_POINT('',#1190);
#348=VERTEX_POINT('',#1192);
#349=VERTEX_POINT('',#1197);
#350=VERTEX_POINT('',#1199);
#351=VERTEX_POINT('',#1204);
#352=VERTEX_POINT('',#1206);
#353=VERTEX_POINT('',#1211);
#354=VERTEX_POINT('',#1213);
#355=VERTEX_POINT('',#1218);
#356=VERTEX_POINT('',#1220);
#357=VERTEX_POINT('',#1225);
#358=VERTEX_POINT('',#1227);
#359=VERTEX_POINT('',#1232);
#360=VERTEX_POINT('',#1234);
#361=VERTEX_POINT('',#1239);
#362=VERTEX_POINT('',#1241);
#363=VERTEX_POINT('',#1246);
#364=VERTEX_POINT('',#1248);
#365=VERTEX_POINT('',#1253);
#366=VERTEX_POINT('',#1255);
#367=VERTEX_POINT('',#1260);
#368=VERTEX_POINT('',#1262);
#369=VERTEX_POINT('',#1267);
#370=VERTEX_POINT('',#1269);
#371=VERTEX_POINT('',#1274);
#372=VERTEX_POINT('',#1276);
#373=VERTEX_POINT('',#1281);
#374=VERTEX_POINT('',#1283);
#375=VERTEX_POINT('',#1288);
#376=VERTEX_POINT('',#1290);
#377=VERTEX_POINT('',#1295);
#378=VERTEX_POINT('',#1297);
#379=VERTEX_POINT('',#1302);
#380=VERTEX_POINT('',#1304);
#381=VERTEX_POINT('',#1309);
#382=VERTEX_POINT('',#1311);
#383=VERTEX_POINT('',#1316);
#384=VERTEX_POINT('',#1318);
#385=VERTEX_POINT('',#1323);
#386=VERTEX_POINT('',#1325);
#387=VERTEX_POINT('',#1330);
#388=VERTEX_POINT('',#1332);
#389=VERTEX_POINT('',#1337);
#390=VERTEX_POINT('',#1339);
#391=VERTEX_POINT('',#1344);
#392=VERTEX_POINT('',#1346);
#393=VERTEX_POINT('',#1351);
#394=VERTEX_POINT('',#1352);
#395=VERTEX_POINT('',#1354);
#396=VERTEX_POINT('',#1356);
#397=VERTEX_POINT('',#1360);
#398=VERTEX_POINT('',#1362);
#399=VERTEX_POINT('',#1366);
#400=VERTEX_POINT('',#1368);
#401=VERTEX_POINT('',#1372);
#402=VERTEX_POINT('',#1374);
#403=VERTEX_POINT('',#1378);
#404=VERTEX_POINT('',#1380);
#405=VERTEX_POINT('',#1384);
#406=VERTEX_POINT('',#1386);
#407=VERTEX_POINT('',#1390);
#408=VERTEX_POINT('',#1392);
#409=EDGE_CURVE('',#345,#345,#289,.T.);
#410=EDGE_CURVE('',#345,#346,#209,.T.);
#411=EDGE_CURVE('',#346,#346,#290,.T.);
#412=EDGE_CURVE('',#347,#347,#291,.T.);
#413=EDGE_CURVE('',#347,#348,#210,.T.);
#414=EDGE_CURVE('',#348,#348,#292,.T.);
#415=EDGE_CURVE('',#349,#349,#293,.T.);
#416=EDGE_CURVE('',#349,#350,#211,.T.);
#417=EDGE_CURVE('',#350,#350,#294,.T.);
#418=EDGE_CURVE('',#351,#351,#295,.T.);
#419=EDGE_CURVE('',#351,#352,#212,.T.);
#420=EDGE_CURVE('',#352,#352,#296,.T.);
#421=EDGE_CURVE('',#353,#353,#297,.T.);
#422=EDGE_CURVE('',#353,#354,#213,.T.);
#423=EDGE_CURVE('',#354,#354,#298,.T.);
#424=EDGE_CURVE('',#355,#355,#299,.T.);
#425=EDGE_CURVE('',#355,#356,#214,.T.);
#426=EDGE_CURVE('',#356,#356,#300,.T.);
#427=EDGE_CURVE('',#357,#357,#301,.T.);
#428=EDGE_CURVE('',#357,#358,#215,.T.);
#429=EDGE_CURVE('',#358,#358,#302,.T.);
#430=EDGE_CURVE('',#359,#359,#303,.T.);
#431=EDGE_CURVE('',#359,#360,#216,.T.);
#432=EDGE_CURVE('',#360,#360,#304,.T.);
#433=EDGE_CURVE('',#361,#361,#305,.T.);
#434=EDGE_CURVE('',#361,#362,#217,.T.);
#435=EDGE_CURVE('',#362,#362,#306,.T.);
#436=EDGE_CURVE('',#363,#363,#307,.T.);
#437=EDGE_CURVE('',#363,#364,#218,.T.);
#438=EDGE_CURVE('',#364,#364,#308,.T.);
#439=EDGE_CURVE('',#365,#365,#309,.T.);
#440=EDGE_CURVE('',#365,#366,#219,.T.);
#441=EDGE_CURVE('',#366,#366,#310,.T.);
#442=EDGE_CURVE('',#367,#367,#311,.T.);
#443=EDGE_CURVE('',#367,#368,#220,.T.);
#444=EDGE_CURVE('',#368,#368,#312,.T.);
#445=EDGE_CURVE('',#369,#369,#313,.T.);
#446=EDGE_CURVE('',#369,#370,#221,.T.);
#447=EDGE_CURVE('',#370,#370,#314,.T.);
#448=EDGE_CURVE('',#371,#371,#315,.T.);
#449=EDGE_CURVE('',#371,#372,#222,.T.);
#450=EDGE_CURVE('',#372,#372,#316,.T.);
#451=EDGE_CURVE('',#373,#373,#317,.T.);
#452=EDGE_CURVE('',#373,#374,#223,.T.);
#453=EDGE_CURVE('',#374,#374,#318,.T.);
#454=EDGE_CURVE('',#375,#375,#319,.T.);
#455=EDGE_CURVE('',#375,#376,#224,.T.);
#456=EDGE_CURVE('',#376,#376,#320,.T.);
#457=EDGE_CURVE('',#377,#377,#321,.T.);
#458=EDGE_CURVE('',#377,#378,#225,.T.);
#459=EDGE_CURVE('',#378,#378,#322,.T.);
#460=EDGE_CURVE('',#379,#379,#323,.T.);
#461=EDGE_CURVE('',#379,#380,#226,.T.);
#462=EDGE_CURVE('',#380,#380,#324,.T.);
#463=EDGE_CURVE('',#381,#381,#325,.T.);
#464=EDGE_CURVE('',#381,#382,#227,.T.);
#465=EDGE_CURVE('',#382,#382,#326,.T.);
#466=EDGE_CURVE('',#383,#383,#327,.T.);
#467=EDGE_CURVE('',#383,#384,#228,.T.);
#468=EDGE_CURVE('',#384,#384,#328,.T.);
#469=EDGE_CURVE('',#385,#385,#329,.T.);
#470=EDGE_CURVE('',#385,#386,#229,.T.);
#471=EDGE_CURVE('',#386,#386,#330,.T.);
#472=EDGE_CURVE('',#387,#387,#331,.T.);
#473=EDGE_CURVE('',#387,#388,#230,.T.);
#474=EDGE_CURVE('',#388,#388,#332,.T.);
#475=EDGE_CURVE('',#389,#389,#333,.T.);
#476=EDGE_CURVE('',#389,#390,#231,.T.);
#477=EDGE_CURVE('',#390,#390,#334,.T.);
#478=EDGE_CURVE('',#391,#391,#335,.T.);
#479=EDGE_CURVE('',#391,#392,#232,.T.);
#480=EDGE_CURVE('',#392,#392,#336,.T.);
#481=EDGE_CURVE('',#393,#394,#233,.T.);
#482=EDGE_CURVE('',#393,#395,#234,.T.);
#483=EDGE_CURVE('',#396,#395,#235,.T.);
#484=EDGE_CURVE('',#394,#396,#236,.T.);
#485=EDGE_CURVE('',#397,#394,#337,.T.);
#486=EDGE_CURVE('',#398,#396,#338,.T.);
#487=EDGE_CURVE('',#397,#398,#237,.T.);
#488=EDGE_CURVE('',#397,#399,#238,.T.);
#489=EDGE_CURVE('',#400,#398,#239,.T.);
#490=EDGE_CURVE('',#399,#400,#240,.T.);
#491=EDGE_CURVE('',#401,#399,#339,.T.);
#492=EDGE_CURVE('',#402,#400,#340,.T.);
#493=EDGE_CURVE('',#401,#402,#241,.T.);
#494=EDGE_CURVE('',#401,#403,#242,.T.);
#495=EDGE_CURVE('',#404,#402,#243,.T.);
#496=EDGE_CURVE('',#403,#404,#244,.T.);
#497=EDGE_CURVE('',#405,#403,#341,.T.);
#498=EDGE_CURVE('',#406,#404,#342,.T.);
#499=EDGE_CURVE('',#405,#406,#245,.T.);
#500=EDGE_CURVE('',#405,#407,#246,.T.);
#501=EDGE_CURVE('',#408,#406,#247,.T.);
#502=EDGE_CURVE('',#407,#408,#248,.T.);
#503=EDGE_CURVE('',#393,#407,#343,.T.);
#504=EDGE_CURVE('',#395,#408,#344,.T.);
#505=ORIENTED_EDGE('',*,*,#409,.F.);
#506=ORIENTED_EDGE('',*,*,#410,.T.);
#507=ORIENTED_EDGE('',*,*,#411,.T.);
#508=ORIENTED_EDGE('',*,*,#410,.F.);
#509=ORIENTED_EDGE('',*,*,#411,.F.);
#510=ORIENTED_EDGE('',*,*,#412,.F.);
#511=ORIENTED_EDGE('',*,*,#413,.T.);
#512=ORIENTED_EDGE('',*,*,#414,.T.);
#513=ORIENTED_EDGE('',*,*,#413,.F.);
#514=ORIENTED_EDGE('',*,*,#414,.F.);
#515=ORIENTED_EDGE('',*,*,#415,.F.);
#516=ORIENTED_EDGE('',*,*,#416,.T.);
#517=ORIENTED_EDGE('',*,*,#417,.T.);
#518=ORIENTED_EDGE('',*,*,#416,.F.);
#519=ORIENTED_EDGE('',*,*,#417,.F.);
#520=ORIENTED_EDGE('',*,*,#418,.F.);
#521=ORIENTED_EDGE('',*,*,#419,.T.);
#522=ORIENTED_EDGE('',*,*,#420,.T.);
#523=ORIENTED_EDGE('',*,*,#419,.F.);
#524=ORIENTED_EDGE('',*,*,#420,.F.);
#525=ORIENTED_EDGE('',*,*,#421,.F.);
#526=ORIENTED_EDGE('',*,*,#422,.T.);
#527=ORIENTED_EDGE('',*,*,#423,.T.);
#528=ORIENTED_EDGE('',*,*,#422,.F.);
#529=ORIENTED_EDGE('',*,*,#423,.F.);
#530=ORIENTED_EDGE('',*,*,#424,.F.);
#531=ORIENTED_EDGE('',*,*,#425,.T.);
#532=ORIENTED_EDGE('',*,*,#426,.T.);
#533=ORIENTED_EDGE('',*,*,#425,.F.);
#534=ORIENTED_EDGE('',*,*,#426,.F.);
#535=ORIENTED_EDGE('',*,*,#427,.F.);
#536=ORIENTED_EDGE('',*,*,#428,.T.);
#537=ORIENTED_EDGE('',*,*,#429,.T.);
#538=ORIENTED_EDGE('',*,*,#428,.F.);
#539=ORIENTED_EDGE('',*,*,#429,.F.);
#540=ORIENTED_EDGE('',*,*,#430,.F.);
#541=ORIENTED_EDGE('',*,*,#431,.T.);
#542=ORIENTED_EDGE('',*,*,#432,.T.);
#543=ORIENTED_EDGE('',*,*,#431,.F.);
#544=ORIENTED_EDGE('',*,*,#432,.F.);
#545=ORIENTED_EDGE('',*,*,#433,.F.);
#546=ORIENTED_EDGE('',*,*,#434,.T.);
#547=ORIENTED_EDGE('',*,*,#435,.T.);
#548=ORIENTED_EDGE('',*,*,#434,.F.);
#549=ORIENTED_EDGE('',*,*,#435,.F.);
#550=ORIENTED_EDGE('',*,*,#436,.F.);
#551=ORIENTED_EDGE('',*,*,#437,.T.);
#552=ORIENTED_EDGE('',*,*,#438,.T.);
#553=ORIENTED_EDGE('',*,*,#437,.F.);
#554=ORIENTED_EDGE('',*,*,#438,.F.);
#555=ORIENTED_EDGE('',*,*,#439,.F.);
#556=ORIENTED_EDGE('',*,*,#440,.T.);
#557=ORIENTED_EDGE('',*,*,#441,.T.);
#558=ORIENTED_EDGE('',*,*,#440,.F.);
#559=ORIENTED_EDGE('',*,*,#441,.F.);
#560=ORIENTED_EDGE('',*,*,#442,.F.);
#561=ORIENTED_EDGE('',*,*,#443,.T.);
#562=ORIENTED_EDGE('',*,*,#444,.T.);
#563=ORIENTED_EDGE('',*,*,#443,.F.);
#564=ORIENTED_EDGE('',*,*,#444,.F.);
#565=ORIENTED_EDGE('',*,*,#445,.F.);
#566=ORIENTED_EDGE('',*,*,#446,.T.);
#567=ORIENTED_EDGE('',*,*,#447,.T.);
#568=ORIENTED_EDGE('',*,*,#446,.F.);
#569=ORIENTED_EDGE('',*,*,#447,.F.);
#570=ORIENTED_EDGE('',*,*,#448,.F.);
#571=ORIENTED_EDGE('',*,*,#449,.T.);
#572=ORIENTED_EDGE('',*,*,#450,.T.);
#573=ORIENTED_EDGE('',*,*,#449,.F.);
#574=ORIENTED_EDGE('',*,*,#450,.F.);
#575=ORIENTED_EDGE('',*,*,#451,.F.);
#576=ORIENTED_EDGE('',*,*,#452,.T.);
#577=ORIENTED_EDGE('',*,*,#453,.T.);
#578=ORIENTED_EDGE('',*,*,#452,.F.);
#579=ORIENTED_EDGE('',*,*,#453,.F.);
#580=ORIENTED_EDGE('',*,*,#454,.F.);
#581=ORIENTED_EDGE('',*,*,#455,.T.);
#582=ORIENTED_EDGE('',*,*,#456,.T.);
#583=ORIENTED_EDGE('',*,*,#455,.F.);
#584=ORIENTED_EDGE('',*,*,#456,.F.);
#585=ORIENTED_EDGE('',*,*,#457,.F.);
#586=ORIENTED_EDGE('',*,*,#458,.T.);
#587=ORIENTED_EDGE('',*,*,#459,.T.);
#588=ORIENTED_EDGE('',*,*,#458,.F.);
#589=ORIENTED_EDGE('',*,*,#459,.F.);
#590=ORIENTED_EDGE('',*,*,#460,.F.);
#591=ORIENTED_EDGE('',*,*,#461,.T.);
#592=ORIENTED_EDGE('',*,*,#462,.T.);
#593=ORIENTED_EDGE('',*,*,#461,.F.);
#594=ORIENTED_EDGE('',*,*,#462,.F.);
#595=ORIENTED_EDGE('',*,*,#463,.F.);
#596=ORIENTED_EDGE('',*,*,#464,.T.);
#597=ORIENTED_EDGE('',*,*,#465,.T.);
#598=ORIENTED_EDGE('',*,*,#464,.F.);
#599=ORIENTED_EDGE('',*,*,#465,.F.);
#600=ORIENTED_EDGE('',*,*,#466,.F.);
#601=ORIENTED_EDGE('',*,*,#467,.T.);
#602=ORIENTED_EDGE('',*,*,#468,.T.);
#603=ORIENTED_EDGE('',*,*,#467,.F.);
#604=ORIENTED_EDGE('',*,*,#468,.F.);
#605=ORIENTED_EDGE('',*,*,#469,.F.);
#606=ORIENTED_EDGE('',*,*,#470,.T.);
#607=ORIENTED_EDGE('',*,*,#471,.T.);
#608=ORIENTED_EDGE('',*,*,#470,.F.);
#609=ORIENTED_EDGE('',*,*,#471,.F.);
#610=ORIENTED_EDGE('',*,*,#472,.F.);
#611=ORIENTED_EDGE('',*,*,#473,.T.);
#612=ORIENTED_EDGE('',*,*,#474,.T.);
#613=ORIENTED_EDGE('',*,*,#473,.F.);
#614=ORIENTED_EDGE('',*,*,#474,.F.);
#615=ORIENTED_EDGE('',*,*,#475,.F.);
#616=ORIENTED_EDGE('',*,*,#476,.T.);
#617=ORIENTED_EDGE('',*,*,#477,.T.);
#618=ORIENTED_EDGE('',*,*,#476,.F.);
#619=ORIENTED_EDGE('',*,*,#477,.F.);
#620=ORIENTED_EDGE('',*,*,#478,.F.);
#621=ORIENTED_EDGE('',*,*,#479,.T.);
#622=ORIENTED_EDGE('',*,*,#480,.T.);
#623=ORIENTED_EDGE('',*,*,#479,.F.);
#624=ORIENTED_EDGE('',*,*,#480,.F.);
#625=ORIENTED_EDGE('',*,*,#481,.F.);
#626=ORIENTED_EDGE('',*,*,#482,.T.);
#627=ORIENTED_EDGE('',*,*,#483,.F.);
#628=ORIENTED_EDGE('',*,*,#484,.F.);
#629=ORIENTED_EDGE('',*,*,#485,.T.);
#630=ORIENTED_EDGE('',*,*,#484,.T.);
#631=ORIENTED_EDGE('',*,*,#486,.F.);
#632=ORIENTED_EDGE('',*,*,#487,.F.);
#633=ORIENTED_EDGE('',*,*,#488,.F.);
#634=ORIENTED_EDGE('',*,*,#487,.T.);
#635=ORIENTED_EDGE('',*,*,#489,.F.);
#636=ORIENTED_EDGE('',*,*,#490,.F.);
#637=ORIENTED_EDGE('',*,*,#491,.T.);
#638=ORIENTED_EDGE('',*,*,#490,.T.);
#639=ORIENTED_EDGE('',*,*,#492,.F.);
#640=ORIENTED_EDGE('',*,*,#493,.F.);
#641=ORIENTED_EDGE('',*,*,#494,.F.);
#642=ORIENTED_EDGE('',*,*,#493,.T.);
#643=ORIENTED_EDGE('',*,*,#495,.F.);
#644=ORIENTED_EDGE('',*,*,#496,.F.);
#645=ORIENTED_EDGE('',*,*,#497,.T.);
#646=ORIENTED_EDGE('',*,*,#496,.T.);
#647=ORIENTED_EDGE('',*,*,#498,.F.);
#648=ORIENTED_EDGE('',*,*,#499,.F.);
#649=ORIENTED_EDGE('',*,*,#500,.F.);
#650=ORIENTED_EDGE('',*,*,#499,.T.);
#651=ORIENTED_EDGE('',*,*,#501,.F.);
#652=ORIENTED_EDGE('',*,*,#502,.F.);
#653=ORIENTED_EDGE('',*,*,#503,.T.);
#654=ORIENTED_EDGE('',*,*,#502,.T.);
#655=ORIENTED_EDGE('',*,*,#504,.F.);
#656=ORIENTED_EDGE('',*,*,#482,.F.);
#657=ORIENTED_EDGE('',*,*,#504,.T.);
#658=ORIENTED_EDGE('',*,*,#501,.T.);
#659=ORIENTED_EDGE('',*,*,#498,.T.);
#660=ORIENTED_EDGE('',*,*,#495,.T.);
#661=ORIENTED_EDGE('',*,*,#492,.T.);
#662=ORIENTED_EDGE('',*,*,#489,.T.);
#663=ORIENTED_EDGE('',*,*,#486,.T.);
#664=ORIENTED_EDGE('',*,*,#483,.T.);
#665=ORIENTED_EDGE('',*,*,#409,.T.);
#666=ORIENTED_EDGE('',*,*,#412,.T.);
#667=ORIENTED_EDGE('',*,*,#415,.T.);
#668=ORIENTED_EDGE('',*,*,#418,.T.);
#669=ORIENTED_EDGE('',*,*,#421,.T.);
#670=ORIENTED_EDGE('',*,*,#424,.T.);
#671=ORIENTED_EDGE('',*,*,#427,.T.);
#672=ORIENTED_EDGE('',*,*,#430,.T.);
#673=ORIENTED_EDGE('',*,*,#433,.T.);
#674=ORIENTED_EDGE('',*,*,#436,.T.);
#675=ORIENTED_EDGE('',*,*,#439,.T.);
#676=ORIENTED_EDGE('',*,*,#442,.T.);
#677=ORIENTED_EDGE('',*,*,#445,.T.);
#678=ORIENTED_EDGE('',*,*,#448,.T.);
#679=ORIENTED_EDGE('',*,*,#451,.T.);
#680=ORIENTED_EDGE('',*,*,#454,.T.);
#681=ORIENTED_EDGE('',*,*,#457,.T.);
#682=ORIENTED_EDGE('',*,*,#460,.T.);
#683=ORIENTED_EDGE('',*,*,#463,.T.);
#684=ORIENTED_EDGE('',*,*,#466,.T.);
#685=ORIENTED_EDGE('',*,*,#469,.T.);
#686=ORIENTED_EDGE('',*,*,#472,.T.);
#687=ORIENTED_EDGE('',*,*,#475,.T.);
#688=ORIENTED_EDGE('',*,*,#478,.T.);
#689=ORIENTED_EDGE('',*,*,#503,.F.);
#690=ORIENTED_EDGE('',*,*,#481,.T.);
#691=ORIENTED_EDGE('',*,*,#485,.F.);
#692=ORIENTED_EDGE('',*,*,#488,.T.);
#693=ORIENTED_EDGE('',*,*,#491,.F.);
#694=ORIENTED_EDGE('',*,*,#494,.T.);
#695=ORIENTED_EDGE('',*,*,#497,.F.);
#696=ORIENTED_EDGE('',*,*,#500,.T.);
#697=CYLINDRICAL_SURFACE('',#797,6.25);
#698=CYLINDRICAL_SURFACE('',#801,6.25);
#699=CYLINDRICAL_SURFACE('',#805,6.25);
#700=CYLINDRICAL_SURFACE('',#809,6.25);
#701=CYLINDRICAL_SURFACE('',#813,6.25);
#702=CYLINDRICAL_SURFACE('',#817,6.25);
#703=CYLINDRICAL_SURFACE('',#821,6.25);
#704=CYLINDRICAL_SURFACE('',#825,6.25);
#705=CYLINDRICAL_SURFACE('',#829,6.25);
#706=CYLINDRICAL_SURFACE('',#833,6.25);
#707=CYLINDRICAL_SURFACE('',#837,6.25);
#708=CYLINDRICAL_SURFACE('',#841,6.25);
#709=CYLINDRICAL_SURFACE('',#845,6.25);
#710=CYLINDRICAL_SURFACE('',#849,6.25);
#711=CYLINDRICAL_SURFACE('',#853,6.25);
#712=CYLINDRICAL_SURFACE('',#857,6.25);
#713=CYLINDRICAL_SURFACE('',#861,6.25);
#714=CYLINDRICAL_SURFACE('',#865,6.25);
#715=CYLINDRICAL_SURFACE('',#869,6.25);
#716=CYLINDRICAL_SURFACE('',#873,6.25);
#717=CYLINDRICAL_SURFACE('',#877,6.25);
#718=CYLINDRICAL_SURFACE('',#881,6.25);
#719=CYLINDRICAL_SURFACE('',#885,6.25);
#720=CYLINDRICAL_SURFACE('',#889,6.25);
#721=CYLINDRICAL_SURFACE('',#894,2.00000000000001);
#722=CYLINDRICAL_SURFACE('',#898,2.);
#723=CYLINDRICAL_SURFACE('',#902,2.);
#724=CYLINDRICAL_SURFACE('',#906,1.99999999999999);
#725=ADVANCED_FACE('',(#69),#697,.F.);
#726=ADVANCED_FACE('',(#70),#39,.F.);
#727=ADVANCED_FACE('',(#71),#698,.F.);
#728=ADVANCED_FACE('',(#72),#40,.F.);
#729=ADVANCED_FACE('',(#73),#699,.F.);
#730=ADVANCED_FACE('',(#74),#41,.F.);
#731=ADVANCED_FACE('',(#75),#700,.F.);
#732=ADVANCED_FACE('',(#76),#42,.F.);
#733=ADVANCED_FACE('',(#77),#701,.F.);
#734=ADVANCED_FACE('',(#78),#43,.F.);
#735=ADVANCED_FACE('',(#79),#702,.F.);
#736=ADVANCED_FACE('',(#80),#44,.F.);
#737=ADVANCED_FACE('',(#81),#703,.F.);
#738=ADVANCED_FACE('',(#82),#45,.F.);
#739=ADVANCED_FACE('',(#83),#704,.F.);
#740=ADVANCED_FACE('',(#84),#46,.F.);
#741=ADVANCED_FACE('',(#85),#705,.F.);
#742=ADVANCED_FACE('',(#86),#47,.F.);
#743=ADVANCED_FACE('',(#87),#706,.F.);
#744=ADVANCED_FACE('',(#88),#48,.F.);
#745=ADVANCED_FACE('',(#89),#707,.F.);
#746=ADVANCED_FACE('',(#90),#49,.F.);
#747=ADVANCED_FACE('',(#91),#708,.F.);
#748=ADVANCED_FACE('',(#92),#50,.F.);
#749=ADVANCED_FACE('',(#93),#709,.F.);
#750=ADVANCED_FACE('',(#94),#51,.F.);
#751=ADVANCED_FACE('',(#95),#710,.F.);
#752=ADVANCED_FACE('',(#96),#52,.F.);
#753=ADVANCED_FACE('',(#97),#711,.F.);
#754=ADVANCED_FACE('',(#98),#53,.F.);
#755=ADVANCED_FACE('',(#99),#712,.F.);
#756=ADVANCED_FACE('',(#100),#54,.F.);
#757=ADVANCED_FACE('',(#101),#713,.F.);
#758=ADVANCED_FACE('',(#102),#55,.F.);
#759=ADVANCED_FACE('',(#103),#714,.F.);
#760=ADVANCED_FACE('',(#104),#56,.F.);
#761=ADVANCED_FACE('',(#105),#715,.F.);
#762=ADVANCED_FACE('',(#106),#57,.F.);
#763=ADVANCED_FACE('',(#107),#716,.F.);
#764=ADVANCED_FACE('',(#108),#58,.F.);
#765=ADVANCED_FACE('',(#109),#717,.F.);
#766=ADVANCED_FACE('',(#110),#59,.F.);
#767=ADVANCED_FACE('',(#111),#718,.F.);
#768=ADVANCED_FACE('',(#112),#60,.F.);
#769=ADVANCED_FACE('',(#113),#719,.F.);
#770=ADVANCED_FACE('',(#114),#61,.F.);
#771=ADVANCED_FACE('',(#115),#720,.F.);
#772=ADVANCED_FACE('',(#116),#62,.F.);
#773=ADVANCED_FACE('',(#117),#63,.T.);
#774=ADVANCED_FACE('',(#118),#721,.T.);
#775=ADVANCED_FACE('',(#119),#64,.T.);
#776=ADVANCED_FACE('',(#120),#722,.T.);
#777=ADVANCED_FACE('',(#121),#65,.T.);
#778=ADVANCED_FACE('',(#122),#723,.T.);
#779=ADVANCED_FACE('',(#123),#66,.T.);
#780=ADVANCED_FACE('',(#124),#724,.T.);
#781=ADVANCED_FACE('',(#125,#15,#16,#17,#18,#19,#20,#21,#22,#23,#24,#25,
#26,#27,#28,#29,#30,#31,#32,#33,#34,#35,#36,#37,#38),#67,.T.);
#782=ADVANCED_FACE('',(#126),#68,.F.);
#783=CLOSED_SHELL('',(#725,#726,#727,#728,#729,#730,#731,#732,#733,#734,
#735,#736,#737,#738,#739,#740,#741,#742,#743,#744,#745,#746,#747,#748,#749,
#750,#751,#752,#753,#754,#755,#756,#757,#758,#759,#760,#761,#762,#763,#764,
#765,#766,#767,#768,#769,#770,#771,#772,#773,#774,#775,#776,#777,#778,#779,
#780,#781,#782));
#784=DERIVED_UNIT_ELEMENT(#786,1.);
#785=DERIVED_UNIT_ELEMENT(#1405,-3.);
#786=(
MASS_UNIT()
NAMED_UNIT(*)
SI_UNIT(.KILO.,.GRAM.)
);
#787=DERIVED_UNIT((#784,#785));
#788=MEASURE_REPRESENTATION_ITEM('density measure',
POSITIVE_RATIO_MEASURE(7850.),#787);
#789=PROPERTY_DEFINITION_REPRESENTATION(#794,#791);
#790=PROPERTY_DEFINITION_REPRESENTATION(#795,#792);
#791=REPRESENTATION('material name',(#793),#1402);
#792=REPRESENTATION('density',(#788),#1402);
#793=DESCRIPTIVE_REPRESENTATION_ITEM('Steel','Steel');
#794=PROPERTY_DEFINITION('material property','material name',#1412);
#795=PROPERTY_DEFINITION('material property','density of part',#1412);
#796=AXIS2_PLACEMENT_3D('',#1181,#911,#912);
#797=AXIS2_PLACEMENT_3D('',#1182,#913,#914);
#798=AXIS2_PLACEMENT_3D('',#1184,#915,#916);
#799=AXIS2_PLACEMENT_3D('',#1187,#918,#919);
#800=AXIS2_PLACEMENT_3D('',#1188,#920,#921);
#801=AXIS2_PLACEMENT_3D('',#1189,#922,#923);
#802=AXIS2_PLACEMENT_3D('',#1191,#924,#925);
#803=AXIS2_PLACEMENT_3D('',#1194,#927,#928);
#804=AXIS2_PLACEMENT_3D('',#1195,#929,#930);
#805=AXIS2_PLACEMENT_3D('',#1196,#931,#932);
#806=AXIS2_PLACEMENT_3D('',#1198,#933,#934);
#807=AXIS2_PLACEMENT_3D('',#1201,#936,#937);
#808=AXIS2_PLACEMENT_3D('',#1202,#938,#939);
#809=AXIS2_PLACEMENT_3D('',#1203,#940,#941);
#810=AXIS2_PLACEMENT_3D('',#1205,#942,#943);
#811=AXIS2_PLACEMENT_3D('',#1208,#945,#946);
#812=AXIS2_PLACEMENT_3D('',#1209,#947,#948);
#813=AXIS2_PLACEMENT_3D('',#1210,#949,#950);
#814=AXIS2_PLACEMENT_3D('',#1212,#951,#952);
#815=AXIS2_PLACEMENT_3D('',#1215,#954,#955);
#816=AXIS2_PLACEMENT_3D('',#1216,#956,#957);
#817=AXIS2_PLACEMENT_3D('',#1217,#958,#959);
#818=AXIS2_PLACEMENT_3D('',#1219,#960,#961);
#819=AXIS2_PLACEMENT_3D('',#1222,#963,#964);
#820=AXIS2_PLACEMENT_3D('',#1223,#965,#966);
#821=AXIS2_PLACEMENT_3D('',#1224,#967,#968);
#822=AXIS2_PLACEMENT_3D('',#1226,#969,#970);
#823=AXIS2_PLACEMENT_3D('',#1229,#972,#973);
#824=AXIS2_PLACEMENT_3D('',#1230,#974,#975);
#825=AXIS2_PLACEMENT_3D('',#1231,#976,#977);
#826=AXIS2_PLACEMENT_3D('',#1233,#978,#979);
#827=AXIS2_PLACEMENT_3D('',#1236,#981,#982);
#828=AXIS2_PLACEMENT_3D('',#1237,#983,#984);
#829=AXIS2_PLACEMENT_3D('',#1238,#985,#986);
#830=AXIS2_PLACEMENT_3D('',#1240,#987,#988);
#831=AXIS2_PLACEMENT_3D('',#1243,#990,#991);
#832=AXIS2_PLACEMENT_3D('',#1244,#992,#993);
#833=AXIS2_PLACEMENT_3D('',#1245,#994,#995);
#834=AXIS2_PLACEMENT_3D('',#1247,#996,#997);
#835=AXIS2_PLACEMENT_3D('',#1250,#999,#1000);
#836=AXIS2_PLACEMENT_3D('',#1251,#1001,#1002);
#837=AXIS2_PLACEMENT_3D('',#1252,#1003,#1004);
#838=AXIS2_PLACEMENT_3D('',#1254,#1005,#1006);
#839=AXIS2_PLACEMENT_3D('',#1257,#1008,#1009);
#840=AXIS2_PLACEMENT_3D('',#1258,#1010,#1011);
#841=AXIS2_PLACEMENT_3D('',#1259,#1012,#1013);
#842=AXIS2_PLACEMENT_3D('',#1261,#1014,#1015);
#843=AXIS2_PLACEMENT_3D('',#1264,#1017,#1018);
#844=AXIS2_PLACEMENT_3D('',#1265,#1019,#1020);
#845=AXIS2_PLACEMENT_3D('',#1266,#1021,#1022);
#846=AXIS2_PLACEMENT_3D('',#1268,#1023,#1024);
#847=AXIS2_PLACEMENT_3D('',#1271,#1026,#1027);
#848=AXIS2_PLACEMENT_3D('',#1272,#1028,#1029);
#849=AXIS2_PLACEMENT_3D('',#1273,#1030,#1031);
#850=AXIS2_PLACEMENT_3D('',#1275,#1032,#1033);
#851=AXIS2_PLACEMENT_3D('',#1278,#1035,#1036);
#852=AXIS2_PLACEMENT_3D('',#1279,#1037,#1038);
#853=AXIS2_PLACEMENT_3D('',#1280,#1039,#1040);
#854=AXIS2_PLACEMENT_3D('',#1282,#1041,#1042);
#855=AXIS2_PLACEMENT_3D('',#1285,#1044,#1045);
#856=AXIS2_PLACEMENT_3D('',#1286,#1046,#1047);
#857=AXIS2_PLACEMENT_3D('',#1287,#1048,#1049);
#858=AXIS2_PLACEMENT_3D('',#1289,#1050,#1051);
#859=AXIS2_PLACEMENT_3D('',#1292,#1053,#1054);
#860=AXIS2_PLACEMENT_3D('',#1293,#1055,#1056);
#861=AXIS2_PLACEMENT_3D('',#1294,#1057,#1058);
#862=AXIS2_PLACEMENT_3D('',#1296,#1059,#1060);
#863=AXIS2_PLACEMENT_3D('',#1299,#1062,#1063);
#864=AXIS2_PLACEMENT_3D('',#1300,#1064,#1065);
#865=AXIS2_PLACEMENT_3D('',#1301,#1066,#1067);
#866=AXIS2_PLACEMENT_3D('',#1303,#1068,#1069);
#867=AXIS2_PLACEMENT_3D('',#1306,#1071,#1072);
#868=AXIS2_PLACEMENT_3D('',#1307,#1073,#1074);
#869=AXIS2_PLACEMENT_3D('',#1308,#1075,#1076);
#870=AXIS2_PLACEMENT_3D('',#1310,#1077,#1078);
#871=AXIS2_PLACEMENT_3D('',#1313,#1080,#1081);
#872=AXIS2_PLACEMENT_3D('',#1314,#1082,#1083);
#873=AXIS2_PLACEMENT_3D('',#1315,#1084,#1085);
#874=AXIS2_PLACEMENT_3D('',#1317,#1086,#1087);
#875=AXIS2_PLACEMENT_3D('',#1320,#1089,#1090);
#876=AXIS2_PLACEMENT_3D('',#1321,#1091,#1092);
#877=AXIS2_PLACEMENT_3D('',#1322,#1093,#1094);
#878=AXIS2_PLACEMENT_3D('',#1324,#1095,#1096);
#879=AXIS2_PLACEMENT_3D('',#1327,#1098,#1099);
#880=AXIS2_PLACEMENT_3D('',#1328,#1100,#1101);
#881=AXIS2_PLACEMENT_3D('',#1329,#1102,#1103);
#882=AXIS2_PLACEMENT_3D('',#1331,#1104,#1105);
#883=AXIS2_PLACEMENT_3D('',#1334,#1107,#1108);
#884=AXIS2_PLACEMENT_3D('',#1335,#1109,#1110);
#885=AXIS2_PLACEMENT_3D('',#1336,#1111,#1112);
#886=AXIS2_PLACEMENT_3D('',#1338,#1113,#1114);
#887=AXIS2_PLACEMENT_3D('',#1341,#1116,#1117);
#888=AXIS2_PLACEMENT_3D('',#1342,#1118,#1119);
#889=AXIS2_PLACEMENT_3D('',#1343,#1120,#1121);
#890=AXIS2_PLACEMENT_3D('',#1345,#1122,#1123);
#891=AXIS2_PLACEMENT_3D('',#1348,#1125,#1126);
#892=AXIS2_PLACEMENT_3D('',#1349,#1127,#1128);
#893=AXIS2_PLACEMENT_3D('',#1350,#1129,#1130);
#894=AXIS2_PLACEMENT_3D('',#1359,#1135,#1136);
#895=AXIS2_PLACEMENT_3D('',#1361,#1137,#1138);
#896=AXIS2_PLACEMENT_3D('',#1363,#1139,#1140);
#897=AXIS2_PLACEMENT_3D('',#1365,#1142,#1143);
#898=AXIS2_PLACEMENT_3D('',#1371,#1147,#1148);
#899=AXIS2_PLACEMENT_3D('',#1373,#1149,#1150);
#900=AXIS2_PLACEMENT_3D('',#1375,#1151,#1152);
#901=AXIS2_PLACEMENT_3D('',#1377,#1154,#1155);
#902=AXIS2_PLACEMENT_3D('',#1383,#1159,#1160);
#903=AXIS2_PLACEMENT_3D('',#1385,#1161,#1162);
#904=AXIS2_PLACEMENT_3D('',#1387,#1163,#1164);
#905=AXIS2_PLACEMENT_3D('',#1389,#1166,#1167);
#906=AXIS2_PLACEMENT_3D('',#1395,#1171,#1172);
#907=AXIS2_PLACEMENT_3D('',#1396,#1173,#1174);
#908=AXIS2_PLACEMENT_3D('',#1397,#1175,#1176);
#909=AXIS2_PLACEMENT_3D('',#1398,#1177,#1178);
#910=AXIS2_PLACEMENT_3D('',#1399,#1179,#1180);
#911=DIRECTION('axis',(0.,0.,1.));
#912=DIRECTION('refdir',(1.,0.,0.));
#913=DIRECTION('center_axis',(0.,0.,-1.));
#914=DIRECTION('ref_axis',(1.,0.,0.));
#915=DIRECTION('center_axis',(0.,0.,-1.));
#916=DIRECTION('ref_axis',(1.,0.,0.));
#917=DIRECTION('',(0.,0.,-1.));
#918=DIRECTION('center_axis',(0.,0.,-1.));
#919=DIRECTION('ref_axis',(1.,0.,0.));
#920=DIRECTION('center_axis',(0.,0.,-1.));
#921=DIRECTION('ref_axis',(1.,0.,0.));
#922=DIRECTION('center_axis',(0.,0.,-1.));
#923=DIRECTION('ref_axis',(1.,0.,0.));
#924=DIRECTION('center_axis',(0.,0.,-1.));
#925=DIRECTION('ref_axis',(1.,0.,0.));
#926=DIRECTION('',(0.,0.,-1.));
#927=DIRECTION('center_axis',(0.,0.,-1.));
#928=DIRECTION('ref_axis',(1.,0.,0.));
#929=DIRECTION('center_axis',(0.,0.,-1.));
#930=DIRECTION('ref_axis',(1.,0.,0.));
#931=DIRECTION('center_axis',(0.,0.,-1.));
#932=DIRECTION('ref_axis',(1.,0.,0.));
#933=DIRECTION('center_axis',(0.,0.,-1.));
#934=DIRECTION('ref_axis',(1.,0.,0.));
#935=DIRECTION('',(0.,0.,-1.));
#936=DIRECTION('center_axis',(0.,0.,-1.));
#937=DIRECTION('ref_axis',(1.,0.,0.));
#938=DIRECTION('center_axis',(0.,0.,-1.));
#939=DIRECTION('ref_axis',(1.,0.,0.));
#940=DIRECTION('center_axis',(0.,0.,-1.));
#941=DIRECTION('ref_axis',(1.,0.,0.));
#942=DIRECTION('center_axis',(0.,0.,-1.));
#943=DIRECTION('ref_axis',(1.,0.,0.));
#944=DIRECTION('',(0.,0.,-1.));
#945=DIRECTION('center_axis',(0.,0.,-1.));
#946=DIRECTION('ref_axis',(1.,0.,0.));
#947=DIRECTION('center_axis',(0.,0.,-1.));
#948=DIRECTION('ref_axis',(1.,0.,0.));
#949=DIRECTION('center_axis',(0.,0.,-1.));
#950=DIRECTION('ref_axis',(1.,0.,0.));
#951=DIRECTION('center_axis',(0.,0.,-1.));
#952=DIRECTION('ref_axis',(1.,0.,0.));
#953=DIRECTION('',(0.,0.,-1.));
#954=DIRECTION('center_axis',(0.,0.,-1.));
#955=DIRECTION('ref_axis',(1.,0.,0.));
#956=DIRECTION('center_axis',(0.,0.,-1.));
#957=DIRECTION('ref_axis',(1.,0.,0.));
#958=DIRECTION('center_axis',(0.,0.,-1.));
#959=DIRECTION('ref_axis',(1.,0.,0.));
#960=DIRECTION('center_axis',(0.,0.,-1.));
#961=DIRECTION('ref_axis',(1.,0.,0.));
#962=DIRECTION('',(0.,0.,-1.));
#963=DIRECTION('center_axis',(0.,0.,-1.));
#964=DIRECTION('ref_axis',(1.,0.,0.));
#965=DIRECTION('center_axis',(0.,0.,-1.));
#966=DIRECTION('ref_axis',(1.,0.,0.));
#967=DIRECTION('center_axis',(0.,0.,-1.));
#968=DIRECTION('ref_axis',(1.,0.,0.));
#969=DIRECTION('center_axis',(0.,0.,-1.));
#970=DIRECTION('ref_axis',(1.,0.,0.));
#971=DIRECTION('',(0.,0.,-1.));
#972=DIRECTION('center_axis',(0.,0.,-1.));
#973=DIRECTION('ref_axis',(1.,0.,0.));
#974=DIRECTION('center_axis',(0.,0.,-1.));
#975=DIRECTION('ref_axis',(1.,0.,0.));
#976=DIRECTION('center_axis',(0.,0.,-1.));
#977=DIRECTION('ref_axis',(1.,0.,0.));
#978=DIRECTION('center_axis',(0.,0.,-1.));
#979=DIRECTION('ref_axis',(1.,0.,0.));
#980=DIRECTION('',(0.,0.,-1.));
#981=DIRECTION('center_axis',(0.,0.,-1.));
#982=DIRECTION('ref_axis',(1.,0.,0.));
#983=DIRECTION('center_axis',(0.,0.,-1.));
#984=DIRECTION('ref_axis',(1.,0.,0.));
#985=DIRECTION('center_axis',(0.,0.,-1.));
#986=DIRECTION('ref_axis',(1.,0.,0.));
#987=DIRECTION('center_axis',(0.,0.,-1.));
#988=DIRECTION('ref_axis',(1.,0.,0.));
#989=DIRECTION('',(0.,0.,-1.));
#990=DIRECTION('center_axis',(0.,0.,-1.));
#991=DIRECTION('ref_axis',(1.,0.,0.));
#992=DIRECTION('center_axis',(0.,0.,-1.));
#993=DIRECTION('ref_axis',(1.,0.,0.));
#994=DIRECTION('center_axis',(0.,0.,-1.));
#995=DIRECTION('ref_axis',(1.,0.,0.));
#996=DIRECTION('center_axis',(0.,0.,-1.));
#997=DIRECTION('ref_axis',(1.,0.,0.));
#998=DIRECTION('',(0.,0.,-1.));
#999=DIRECTION('center_axis',(0.,0.,-1.));
#1000=DIRECTION('ref_axis',(1.,0.,0.));
#1001=DIRECTION('center_axis',(0.,0.,-1.));
#1002=DIRECTION('ref_axis',(1.,0.,0.));
#1003=DIRECTION('center_axis',(0.,0.,-1.));
#1004=DIRECTION('ref_axis',(1.,0.,0.));
#1005=DIRECTION('center_axis',(0.,0.,-1.));
#1006=DIRECTION('ref_axis',(1.,0.,0.));
#1007=DIRECTION('',(0.,0.,-1.));
#1008=DIRECTION('center_axis',(0.,0.,-1.));
#1009=DIRECTION('ref_axis',(1.,0.,0.));
#1010=DIRECTION('center_axis',(0.,0.,-1.));
#1011=DIRECTION('ref_axis',(1.,0.,0.));
#1012=DIRECTION('center_axis',(0.,0.,-1.));
#1013=DIRECTION('ref_axis',(1.,0.,0.));
#1014=DIRECTION('center_axis',(0.,0.,-1.));
#1015=DIRECTION('ref_axis',(1.,0.,0.));
#1016=DIRECTION('',(0.,0.,-1.));
#1017=DIRECTION('center_axis',(0.,0.,-1.));
#1018=DIRECTION('ref_axis',(1.,0.,0.));
#1019=DIRECTION('center_axis',(0.,0.,-1.));
#1020=DIRECTION('ref_axis',(1.,0.,0.));
#1021=DIRECTION('center_axis',(0.,0.,-1.));
#1022=DIRECTION('ref_axis',(1.,0.,0.));
#1023=DIRECTION('center_axis',(0.,0.,-1.));
#1024=DIRECTION('ref_axis',(1.,0.,0.));
#1025=DIRECTION('',(0.,0.,-1.));
#1026=DIRECTION('center_axis',(0.,0.,-1.));
#1027=DIRECTION('ref_axis',(1.,0.,0.));
#1028=DIRECTION('center_axis',(0.,0.,-1.));
#1029=DIRECTION('ref_axis',(1.,0.,0.));
#1030=DIRECTION('center_axis',(0.,0.,-1.));
#1031=DIRECTION('ref_axis',(1.,0.,0.));
#1032=DIRECTION('center_axis',(0.,0.,-1.));
#1033=DIRECTION('ref_axis',(1.,0.,0.));
#1034=DIRECTION('',(0.,0.,-1.));
#1035=DIRECTION('center_axis',(0.,0.,-1.));
#1036=DIRECTION('ref_axis',(1.,0.,0.));
#1037=DIRECTION('center_axis',(0.,0.,-1.));
#1038=DIRECTION('ref_axis',(1.,0.,0.));
#1039=DIRECTION('center_axis',(0.,0.,-1.));
#1040=DIRECTION('ref_axis',(1.,0.,0.));
#1041=DIRECTION('center_axis',(0.,0.,-1.));
#1042=DIRECTION('ref_axis',(1.,0.,0.));
#1043=DIRECTION('',(0.,0.,-1.));
#1044=DIRECTION('center_axis',(0.,0.,-1.));
#1045=DIRECTION('ref_axis',(1.,0.,0.));
#1046=DIRECTION('center_axis',(0.,0.,-1.));
#1047=DIRECTION('ref_axis',(1.,0.,0.));
#1048=DIRECTION('center_axis',(0.,0.,-1.));
#1049=DIRECTION('ref_axis',(1.,0.,0.));
#1050=DIRECTION('center_axis',(0.,0.,-1.));
#1051=DIRECTION('ref_axis',(1.,0.,0.));
#1052=DIRECTION('',(0.,0.,-1.));
#1053=DIRECTION('center_axis',(0.,0.,-1.));
#1054=DIRECTION('ref_axis',(1.,0.,0.));
#1055=DIRECTION('center_axis',(0.,0.,-1.));
#1056=DIRECTION('ref_axis',(1.,0.,0.));
#1057=DIRECTION('center_axis',(0.,0.,-1.));
#1058=DIRECTION('ref_axis',(1.,0.,0.));
#1059=DIRECTION('center_axis',(0.,0.,-1.));
#1060=DIRECTION('ref_axis',(1.,0.,0.));
#1061=DIRECTION('',(0.,0.,-1.));
#1062=DIRECTION('center_axis',(0.,0.,-1.));
#1063=DIRECTION('ref_axis',(1.,0.,0.));
#1064=DIRECTION('center_axis',(0.,0.,-1.));
#1065=DIRECTION('ref_axis',(1.,0.,0.));
#1066=DIRECTION('center_axis',(0.,0.,-1.));
#1067=DIRECTION('ref_axis',(1.,0.,0.));
#1068=DIRECTION('center_axis',(0.,0.,-1.));
#1069=DIRECTION('ref_axis',(1.,0.,0.));
#1070=DIRECTION('',(0.,0.,-1.));
#1071=DIRECTION('center_axis',(0.,0.,-1.));
#1072=DIRECTION('ref_axis',(1.,0.,0.));
#1073=DIRECTION('center_axis',(0.,0.,-1.));
#1074=DIRECTION('ref_axis',(1.,0.,0.));
#1075=DIRECTION('center_axis',(0.,0.,-1.));
#1076=DIRECTION('ref_axis',(1.,0.,0.));
#1077=DIRECTION('center_axis',(0.,0.,-1.));
#1078=DIRECTION('ref_axis',(1.,0.,0.));
#1079=DIRECTION('',(0.,0.,-1.));
#1080=DIRECTION('center_axis',(0.,0.,-1.));
#1081=DIRECTION('ref_axis',(1.,0.,0.));
#1082=DIRECTION('center_axis',(0.,0.,-1.));
#1083=DIRECTION('ref_axis',(1.,0.,0.));
#1084=DIRECTION('center_axis',(0.,0.,-1.));
#1085=DIRECTION('ref_axis',(1.,0.,0.));
#1086=DIRECTION('center_axis',(0.,0.,-1.));
#1087=DIRECTION('ref_axis',(1.,0.,0.));
#1088=DIRECTION('',(0.,0.,-1.));
#1089=DIRECTION('center_axis',(0.,0.,-1.));
#1090=DIRECTION('ref_axis',(1.,0.,0.));
#1091=DIRECTION('center_axis',(0.,0.,-1.));
#1092=DIRECTION('ref_axis',(1.,0.,0.));
#1093=DIRECTION('center_axis',(0.,0.,-1.));
#1094=DIRECTION('ref_axis',(1.,0.,0.));
#1095=DIRECTION('center_axis',(0.,0.,-1.));
#1096=DIRECTION('ref_axis',(1.,0.,0.));
#1097=DIRECTION('',(0.,0.,-1.));
#1098=DIRECTION('center_axis',(0.,0.,-1.));
#1099=DIRECTION('ref_axis',(1.,0.,0.));
#1100=DIRECTION('center_axis',(0.,0.,-1.));
#1101=DIRECTION('ref_axis',(1.,0.,0.));
#1102=DIRECTION('center_axis',(0.,0.,-1.));
#1103=DIRECTION('ref_axis',(1.,0.,0.));
#1104=DIRECTION('center_axis',(0.,0.,-1.));
#1105=DIRECTION('ref_axis',(1.,0.,0.));
#1106=DIRECTION('',(0.,0.,-1.));
#1107=DIRECTION('center_axis',(0.,0.,-1.));
#1108=DIRECTION('ref_axis',(1.,0.,0.));
#1109=DIRECTION('center_axis',(0.,0.,-1.));
#1110=DIRECTION('ref_axis',(1.,0.,0.));
#1111=DIRECTION('center_axis',(0.,0.,-1.));
#1112=DIRECTION('ref_axis',(1.,0.,0.));
#1113=DIRECTION('center_axis',(0.,0.,-1.));
#1114=DIRECTION('ref_axis',(1.,0.,0.));
#1115=DIRECTION('',(0.,0.,-1.));
#1116=DIRECTION('center_axis',(0.,0.,-1.));
#1117=DIRECTION('ref_axis',(1.,0.,0.));
#1118=DIRECTION('center_axis',(0.,0.,-1.));
#1119=DIRECTION('ref_axis',(1.,0.,0.));
#1120=DIRECTION('center_axis',(0.,0.,-1.));
#1121=DIRECTION('ref_axis',(1.,0.,0.));
#1122=DIRECTION('center_axis',(0.,0.,-1.));
#1123=DIRECTION('ref_axis',(1.,0.,0.));
#1124=DIRECTION('',(0.,0.,-1.));
#1125=DIRECTION('center_axis',(0.,0.,-1.));
#1126=DIRECTION('ref_axis',(1.,0.,0.));
#1127=DIRECTION('center_axis',(0.,0.,-1.));
#1128=DIRECTION('ref_axis',(1.,0.,0.));
#1129=DIRECTION('center_axis',(0.,1.,0.));
#1130=DIRECTION('ref_axis',(-1.,0.,0.));
#1131=DIRECTION('',(1.,0.,0.));
#1132=DIRECTION('',(0.,0.,1.));
#1133=DIRECTION('',(-1.,0.,0.));
#1134=DIRECTION('',(0.,0.,1.));
#1135=DIRECTION('center_axis',(0.,0.,1.));
#1136=DIRECTION('ref_axis',(1.,8.8817841970012E-15,0.));
#1137=DIRECTION('center_axis',(0.,0.,1.));
#1138=DIRECTION('ref_axis',(1.,8.8817841970012E-15,0.));
#1139=DIRECTION('center_axis',(0.,0.,1.));
#1140=DIRECTION('ref_axis',(1.,8.8817841970012E-15,0.));
#1141=DIRECTION('',(0.,0.,1.));
#1142=DIRECTION('center_axis',(1.,-2.16628882853689E-16,0.));
#1143=DIRECTION('ref_axis',(2.16628882853689E-16,1.,0.));
#1144=DIRECTION('',(-2.16628882853689E-16,-1.,0.));
#1145=DIRECTION('',(2.16628882853689E-16,1.,0.));
#1146=DIRECTION('',(0.,0.,1.));
#1147=DIRECTION('center_axis',(0.,0.,1.));
#1148=DIRECTION('ref_axis',(0.,-1.,0.));
#1149=DIRECTION('center_axis',(0.,0.,1.));
#1150=DIRECTION('ref_axis',(0.,-1.,0.));
#1151=DIRECTION('center_axis',(0.,0.,1.));
#1152=DIRECTION('ref_axis',(0.,-1.,0.));
#1153=DIRECTION('',(0.,0.,1.));
#1154=DIRECTION('center_axis',(1.79068229778251E-17,-1.,0.));
#1155=DIRECTION('ref_axis',(1.,1.79068229778251E-17,0.));
#1156=DIRECTION('',(-1.,-1.79068229778251E-17,0.));
#1157=DIRECTION('',(1.,1.79068229778251E-17,0.));
#1158=DIRECTION('',(0.,0.,1.));
#1159=DIRECTION('center_axis',(0.,0.,1.));
#1160=DIRECTION('ref_axis',(-1.,1.38777878078145E-16,0.));
#1161=DIRECTION('center_axis',(0.,0.,1.));
#1162=DIRECTION('ref_axis',(-1.,1.38777878078145E-16,0.));
#1163=DIRECTION('center_axis',(0.,0.,1.));
#1164=DIRECTION('ref_axis',(-1.,1.38777878078145E-16,0.));
#1165=DIRECTION('',(0.,0.,1.));
#1166=DIRECTION('center_axis',(-1.,0.,0.));
#1167=DIRECTION('ref_axis',(0.,-1.,0.));
#1168=DIRECTION('',(0.,1.,0.));
#1169=DIRECTION('',(0.,-1.,0.));
#1170=DIRECTION('',(0.,0.,1.));
#1171=DIRECTION('center_axis',(0.,0.,1.));
#1172=DIRECTION('ref_axis',(3.46944695195363E-15,1.,0.));
#1173=DIRECTION('center_axis',(0.,0.,1.));
#1174=DIRECTION('ref_axis',(3.46944695195363E-15,1.,0.));
#1175=DIRECTION('center_axis',(0.,0.,1.));
#1176=DIRECTION('ref_axis',(3.46944695195363E-15,1.,0.));
#1177=DIRECTION('center_axis',(0.,0.,1.));
#1178=DIRECTION('ref_axis',(1.,0.,0.));
#1179=DIRECTION('center_axis',(0.,0.,1.));
#1180=DIRECTION('ref_axis',(1.,0.,0.));
#1181=CARTESIAN_POINT('',(0.,0.,0.));
#1182=CARTESIAN_POINT('Origin',(113.5,20.5,14.));
#1183=CARTESIAN_POINT('',(107.25,20.5,25.));
#1184=CARTESIAN_POINT('Origin',(113.5,20.5,25.));
#1185=CARTESIAN_POINT('',(107.25,20.5,3.));
#1186=CARTESIAN_POINT('',(107.25,20.5,14.));
#1187=CARTESIAN_POINT('Origin',(113.5,20.5,3.));
#1188=CARTESIAN_POINT('Origin',(113.5,20.5,3.));
#1189=CARTESIAN_POINT('Origin',(23.5,20.5,14.));
#1190=CARTESIAN_POINT('',(17.25,20.5,25.));
#1191=CARTESIAN_POINT('Origin',(23.5,20.5,25.));
#1192=CARTESIAN_POINT('',(17.25,20.5,3.));
#1193=CARTESIAN_POINT('',(17.25,20.5,14.));
#1194=CARTESIAN_POINT('Origin',(23.5,20.5,3.));
#1195=CARTESIAN_POINT('Origin',(23.5,20.5,3.));
#1196=CARTESIAN_POINT('Origin',(95.5,20.5,14.));
#1197=CARTESIAN_POINT('',(89.25,20.5,25.));
#1198=CARTESIAN_POINT('Origin',(95.5,20.5,25.));
#1199=CARTESIAN_POINT('',(89.25,20.5,3.));
#1200=CARTESIAN_POINT('',(89.25,20.5,14.));
#1201=CARTESIAN_POINT('Origin',(95.5,20.5,3.));
#1202=CARTESIAN_POINT('Origin',(95.5,20.5,3.));
#1203=CARTESIAN_POINT('Origin',(95.5,38.5,14.));
#1204=CARTESIAN_POINT('',(89.25,38.5,25.));
#1205=CARTESIAN_POINT('Origin',(95.5,38.5,25.));
#1206=CARTESIAN_POINT('',(89.25,38.5,3.));
#1207=CARTESIAN_POINT('',(89.25,38.5,14.));
#1208=CARTESIAN_POINT('Origin',(95.5,38.5,3.));
#1209=CARTESIAN_POINT('Origin',(95.5,38.5,3.));
#1210=CARTESIAN_POINT('Origin',(59.5,38.5,14.));
#1211=CARTESIAN_POINT('',(53.25,38.5,25.));
#1212=CARTESIAN_POINT('Origin',(59.5,38.5,25.));
#1213=CARTESIAN_POINT('',(53.25,38.5,3.));
#1214=CARTESIAN_POINT('',(53.25,38.5,14.));
#1215=CARTESIAN_POINT('Origin',(59.5,38.5,3.));
#1216=CARTESIAN_POINT('Origin',(59.5,38.5,3.));
#1217=CARTESIAN_POINT('Origin',(23.5,38.5,14.));
#1218=CARTESIAN_POINT('',(17.25,38.5,25.));
#1219=CARTESIAN_POINT('Origin',(23.5,38.5,25.));
#1220=CARTESIAN_POINT('',(17.25,38.5,3.));
#1221=CARTESIAN_POINT('',(17.25,38.5,14.));
#1222=CARTESIAN_POINT('Origin',(23.5,38.5,3.));
#1223=CARTESIAN_POINT('Origin',(23.5,38.5,3.));
#1224=CARTESIAN_POINT('Origin',(41.5,56.5,14.));
#1225=CARTESIAN_POINT('',(35.25,56.5,25.));
#1226=CARTESIAN_POINT('Origin',(41.5,56.5,25.));
#1227=CARTESIAN_POINT('',(35.25,56.5,3.));
#1228=CARTESIAN_POINT('',(35.25,56.5,14.));
#1229=CARTESIAN_POINT('Origin',(41.5,56.5,3.));
#1230=CARTESIAN_POINT('Origin',(41.5,56.5,3.));
#1231=CARTESIAN_POINT('Origin',(77.5,56.5,14.));
#1232=CARTESIAN_POINT('',(71.25,56.5,25.));
#1233=CARTESIAN_POINT('Origin',(77.5,56.5,25.));
#1234=CARTESIAN_POINT('',(71.25,56.5,3.));
#1235=CARTESIAN_POINT('',(71.25,56.5,14.));
#1236=CARTESIAN_POINT('Origin',(77.5,56.5,3.));
#1237=CARTESIAN_POINT('Origin',(77.5,56.5,3.));
#1238=CARTESIAN_POINT('Origin',(113.5,56.5,14.));
#1239=CARTESIAN_POINT('',(107.25,56.5,25.));
#1240=CARTESIAN_POINT('Origin',(113.5,56.5,25.));
#1241=CARTESIAN_POINT('',(107.25,56.5,3.));
#1242=CARTESIAN_POINT('',(107.25,56.5,14.));
#1243=CARTESIAN_POINT('Origin',(113.5,56.5,3.));
#1244=CARTESIAN_POINT('Origin',(113.5,56.5,3.));
#1245=CARTESIAN_POINT('Origin',(95.5,74.5,14.));
#1246=CARTESIAN_POINT('',(89.25,74.5,25.));
#1247=CARTESIAN_POINT('Origin',(95.5,74.5,25.));
#1248=CARTESIAN_POINT('',(89.25,74.5,3.));
#1249=CARTESIAN_POINT('',(89.25,74.5,14.));
#1250=CARTESIAN_POINT('Origin',(95.5,74.5,3.));
#1251=CARTESIAN_POINT('Origin',(95.5,74.5,3.));
#1252=CARTESIAN_POINT('Origin',(59.5,74.5,14.));
#1253=CARTESIAN_POINT('',(53.25,74.5,25.));
#1254=CARTESIAN_POINT('Origin',(59.5,74.5,25.));
#1255=CARTESIAN_POINT('',(53.25,74.5,3.));
#1256=CARTESIAN_POINT('',(53.25,74.5,14.));
#1257=CARTESIAN_POINT('Origin',(59.5,74.5,3.));
#1258=CARTESIAN_POINT('Origin',(59.5,74.5,3.));
#1259=CARTESIAN_POINT('Origin',(23.5,74.5,14.));
#1260=CARTESIAN_POINT('',(17.25,74.5,25.));
#1261=CARTESIAN_POINT('Origin',(23.5,74.5,25.));
#1262=CARTESIAN_POINT('',(17.25,74.5,3.));
#1263=CARTESIAN_POINT('',(17.25,74.5,14.));
#1264=CARTESIAN_POINT('Origin',(23.5,74.5,3.));
#1265=CARTESIAN_POINT('Origin',(23.5,74.5,3.));
#1266=CARTESIAN_POINT('Origin',(41.5,74.5,14.));
#1267=CARTESIAN_POINT('',(35.25,74.5,25.));
#1268=CARTESIAN_POINT('Origin',(41.5,74.5,25.));
#1269=CARTESIAN_POINT('',(35.25,74.5,3.));
#1270=CARTESIAN_POINT('',(35.25,74.5,14.));
#1271=CARTESIAN_POINT('Origin',(41.5,74.5,3.));
#1272=CARTESIAN_POINT('Origin',(41.5,74.5,3.));
#1273=CARTESIAN_POINT('Origin',(77.5,74.5,14.));
#1274=CARTESIAN_POINT('',(71.25,74.5,25.));
#1275=CARTESIAN_POINT('Origin',(77.5,74.5,25.));
#1276=CARTESIAN_POINT('',(71.25,74.5,3.));
#1277=CARTESIAN_POINT('',(71.25,74.5,14.));
#1278=CARTESIAN_POINT('Origin',(77.5,74.5,3.));
#1279=CARTESIAN_POINT('Origin',(77.5,74.5,3.));
#1280=CARTESIAN_POINT('Origin',(113.5,74.5,14.));
#1281=CARTESIAN_POINT('',(107.25,74.5,25.));
#1282=CARTESIAN_POINT('Origin',(113.5,74.5,25.));
#1283=CARTESIAN_POINT('',(107.25,74.5,3.));
#1284=CARTESIAN_POINT('',(107.25,74.5,14.));
#1285=CARTESIAN_POINT('Origin',(113.5,74.5,3.));
#1286=CARTESIAN_POINT('Origin',(113.5,74.5,3.));
#1287=CARTESIAN_POINT('Origin',(95.5,56.5,14.));
#1288=CARTESIAN_POINT('',(89.25,56.5,25.));
#1289=CARTESIAN_POINT('Origin',(95.5,56.5,25.));
#1290=CARTESIAN_POINT('',(89.25,56.5,3.));
#1291=CARTESIAN_POINT('',(89.25,56.5,14.));
#1292=CARTESIAN_POINT('Origin',(95.5,56.5,3.));
#1293=CARTESIAN_POINT('Origin',(95.5,56.5,3.));
#1294=CARTESIAN_POINT('Origin',(59.5,56.5,14.));
#1295=CARTESIAN_POINT('',(53.25,56.5,25.));
#1296=CARTESIAN_POINT('Origin',(59.5,56.5,25.));
#1297=CARTESIAN_POINT('',(53.25,56.5,3.));
#1298=CARTESIAN_POINT('',(53.25,56.5,14.));
#1299=CARTESIAN_POINT('Origin',(59.5,56.5,3.));
#1300=CARTESIAN_POINT('Origin',(59.5,56.5,3.));
#1301=CARTESIAN_POINT('Origin',(23.5,56.5,14.));
#1302=CARTESIAN_POINT('',(17.25,56.5,25.));
#1303=CARTESIAN_POINT('Origin',(23.5,56.5,25.));
#1304=CARTESIAN_POINT('',(17.25,56.5,3.));
#1305=CARTESIAN_POINT('',(17.25,56.5,14.));
#1306=CARTESIAN_POINT('Origin',(23.5,56.5,3.));
#1307=CARTESIAN_POINT('Origin',(23.5,56.5,3.));
#1308=CARTESIAN_POINT('Origin',(41.5,38.5,14.));
#1309=CARTESIAN_POINT('',(35.25,38.5,25.));
#1310=CARTESIAN_POINT('Origin',(41.5,38.5,25.));
#1311=CARTESIAN_POINT('',(35.25,38.5,3.));
#1312=CARTESIAN_POINT('',(35.25,38.5,14.));
#1313=CARTESIAN_POINT('Origin',(41.5,38.5,3.));
#1314=CARTESIAN_POINT('Origin',(41.5,38.5,3.));
#1315=CARTESIAN_POINT('Origin',(77.5,38.5,14.));
#1316=CARTESIAN_POINT('',(71.25,38.5,25.));
#1317=CARTESIAN_POINT('Origin',(77.5,38.5,25.));
#1318=CARTESIAN_POINT('',(71.25,38.5,3.));
#1319=CARTESIAN_POINT('',(71.25,38.5,14.));
#1320=CARTESIAN_POINT('Origin',(77.5,38.5,3.));
#1321=CARTESIAN_POINT('Origin',(77.5,38.5,3.));
#1322=CARTESIAN_POINT('Origin',(113.5,38.5,14.));
#1323=CARTESIAN_POINT('',(107.25,38.5,25.));
#1324=CARTESIAN_POINT('Origin',(113.5,38.5,25.));
#1325=CARTESIAN_POINT('',(107.25,38.5,3.));
#1326=CARTESIAN_POINT('',(107.25,38.5,14.));
#1327=CARTESIAN_POINT('Origin',(113.5,38.5,3.));
#1328=CARTESIAN_POINT('Origin',(113.5,38.5,3.));
#1329=CARTESIAN_POINT('Origin',(41.5,20.5,14.));
#1330=CARTESIAN_POINT('',(35.25,20.5,25.));
#1331=CARTESIAN_POINT('Origin',(41.5,20.5,25.));
#1332=CARTESIAN_POINT('',(35.25,20.5,3.));
#1333=CARTESIAN_POINT('',(35.25,20.5,14.));
#1334=CARTESIAN_POINT('Origin',(41.5,20.5,3.));
#1335=CARTESIAN_POINT('Origin',(41.5,20.5,3.));
#1336=CARTESIAN_POINT('Origin',(59.5,20.5,14.));
#1337=CARTESIAN_POINT('',(53.25,20.5,25.));
#1338=CARTESIAN_POINT('Origin',(59.5,20.5,25.));
#1339=CARTESIAN_POINT('',(53.25,20.5,3.));
#1340=CARTESIAN_POINT('',(53.25,20.5,14.));
#1341=CARTESIAN_POINT('Origin',(59.5,20.5,3.));
#1342=CARTESIAN_POINT('Origin',(59.5,20.5,3.));
#1343=CARTESIAN_POINT('Origin',(77.5,20.5,14.));
#1344=CARTESIAN_POINT('',(71.25,20.5,25.));
#1345=CARTESIAN_POINT('Origin',(77.5,20.5,25.));
#1346=CARTESIAN_POINT('',(71.25,20.5,3.));
#1347=CARTESIAN_POINT('',(71.25,20.5,14.));
#1348=CARTESIAN_POINT('Origin',(77.5,20.5,3.));
#1349=CARTESIAN_POINT('Origin',(77.5,20.5,3.));
#1350=CARTESIAN_POINT('Origin',(126.,86.,0.));
#1351=CARTESIAN_POINT('',(2.,86.,0.));
#1352=CARTESIAN_POINT('',(126.,86.,0.));
#1353=CARTESIAN_POINT('',(2.,86.,0.));
#1354=CARTESIAN_POINT('',(2.,86.,25.));
#1355=CARTESIAN_POINT('',(2.,86.,0.));
#1356=CARTESIAN_POINT('',(126.,86.,25.));
#1357=CARTESIAN_POINT('',(2.,86.,25.));
#1358=CARTESIAN_POINT('',(126.,86.,0.));
#1359=CARTESIAN_POINT('Origin',(126.,84.,0.));
#1360=CARTESIAN_POINT('',(128.,84.,0.));
#1361=CARTESIAN_POINT('Origin',(126.,84.,0.));
#1362=CARTESIAN_POINT('',(128.,84.,25.));
#1363=CARTESIAN_POINT('Origin',(126.,84.,25.));
#1364=CARTESIAN_POINT('',(128.,84.,0.));
#1365=CARTESIAN_POINT('Origin',(128.,2.00000000000001,0.));
#1366=CARTESIAN_POINT('',(128.,2.00000000000001,0.));
#1367=CARTESIAN_POINT('',(128.,84.,0.));
#1368=CARTESIAN_POINT('',(128.,2.00000000000001,25.));
#1369=CARTESIAN_POINT('',(128.,84.,25.));
#1370=CARTESIAN_POINT('',(128.,2.00000000000001,0.));
#1371=CARTESIAN_POINT('Origin',(126.,2.,0.));
#1372=CARTESIAN_POINT('',(126.,2.22044604925031E-15,0.));
#1373=CARTESIAN_POINT('Origin',(126.,2.,0.));
#1374=CARTESIAN_POINT('',(126.,0.,25.));
#1375=CARTESIAN_POINT('Origin',(126.,2.,25.));
#1376=CARTESIAN_POINT('',(126.,2.22044604925031E-15,0.));
#1377=CARTESIAN_POINT('Origin',(1.99999999999999,0.,0.));
#1378=CARTESIAN_POINT('',(1.99999999999999,0.,0.));
#1379=CARTESIAN_POINT('',(126.,2.22044604925031E-15,0.));
#1380=CARTESIAN_POINT('',(1.99999999999999,0.,25.));
#1381=CARTESIAN_POINT('',(126.,2.22044604925031E-15,25.));
#1382=CARTESIAN_POINT('',(1.99999999999999,0.,0.));
#1383=CARTESIAN_POINT('Origin',(2.,2.,0.));
#1384=CARTESIAN_POINT('',(0.,2.,0.));
#1385=CARTESIAN_POINT('Origin',(2.,2.,0.));
#1386=CARTESIAN_POINT('',(0.,1.99999999999999,25.));
#1387=CARTESIAN_POINT('Origin',(2.,2.,25.));
#1388=CARTESIAN_POINT('',(0.,2.,0.));
#1389=CARTESIAN_POINT('Origin',(0.,84.,0.));
#1390=CARTESIAN_POINT('',(-2.77555756156289E-16,84.,0.));
#1391=CARTESIAN_POINT('',(0.,2.,0.));
#1392=CARTESIAN_POINT('',(-2.77555756156289E-16,84.,25.));
#1393=CARTESIAN_POINT('',(0.,2.,25.));
#1394=CARTESIAN_POINT('',(-2.77555756156289E-16,84.,0.));
#1395=CARTESIAN_POINT('Origin',(1.99999999999999,84.,0.));
#1396=CARTESIAN_POINT('Origin',(1.99999999999999,84.,0.));
#1397=CARTESIAN_POINT('Origin',(1.99999999999999,84.,25.));
#1398=CARTESIAN_POINT('Origin',(64.,43.,25.));
#1399=CARTESIAN_POINT('Origin',(64.,43.,0.));
#1400=UNCERTAINTY_MEASURE_WITH_UNIT(LENGTH_MEASURE(0.01),#1404,
'DISTANCE_ACCURACY_VALUE',
'Maximum model space distance between geometric entities at asserted c
onnectivities');
#1401=UNCERTAINTY_MEASURE_WITH_UNIT(LENGTH_MEASURE(0.01),#1404,
'DISTANCE_ACCURACY_VALUE',
'Maximum model space distance between geometric entities at asserted c
onnectivities');
#1402=(
GEOMETRIC_REPRESENTATION_CONTEXT(3)
GLOBAL_UNCERTAINTY_ASSIGNED_CONTEXT((#1400))
GLOBAL_UNIT_ASSIGNED_CONTEXT((#1404,#1406,#1407))
REPRESENTATION_CONTEXT('','3D')
);
#1403=(
GEOMETRIC_REPRESENTATION_CONTEXT(3)
GLOBAL_UNCERTAINTY_ASSIGNED_CONTEXT((#1401))
GLOBAL_UNIT_ASSIGNED_CONTEXT((#1404,#1406,#1407))
REPRESENTATION_CONTEXT('','3D')
);
#1404=(
LENGTH_UNIT()
NAMED_UNIT(*)
SI_UNIT(.MILLI.,.METRE.)
);
#1405=(
LENGTH_UNIT()
NAMED_UNIT(*)
SI_UNIT($,.METRE.)
);
#1406=(
NAMED_UNIT(*)
PLANE_ANGLE_UNIT()
SI_UNIT($,.RADIAN.)
);
#1407=(
NAMED_UNIT(*)
SI_UNIT($,.STERADIAN.)
SOLID_ANGLE_UNIT()
);
#1408=SHAPE_DEFINITION_REPRESENTATION(#1409,#1410);
#1409=PRODUCT_DEFINITION_SHAPE('',$,#1412);
#1410=SHAPE_REPRESENTATION('',(#796),#1402);
#1411=PRODUCT_DEFINITION_CONTEXT('part definition',#1416,'design');
#1412=PRODUCT_DEFINITION('24 LC Vial Tray','24 LC Vial Tray v1',#1413,#1411);
#1413=PRODUCT_DEFINITION_FORMATION('',$,#1418);
#1414=PRODUCT_RELATED_PRODUCT_CATEGORY('24 LC Vial Tray v1',
'24 LC Vial Tray v1',(#1418));
#1415=APPLICATION_PROTOCOL_DEFINITION('international standard',
'ap242_managed_model_based_3d_engineering',2011,#1416);
#1416=APPLICATION_CONTEXT('Managed model based 3d engineering');
#1417=PRODUCT_CONTEXT('part definition',#1416,'mechanical');
#1418=PRODUCT('24 LC Vial Tray','24 LC Vial Tray v1',$,(#1417));
#1419=PRESENTATION_STYLE_ASSIGNMENT((#1420));
#1420=SURFACE_STYLE_USAGE(.BOTH.,#1421);
#1421=SURFACE_SIDE_STYLE('',(#1422));
#1422=SURFACE_STYLE_FILL_AREA(#1423);
#1423=FILL_AREA_STYLE('Steel - Satin',(#1424));
#1424=FILL_AREA_STYLE_COLOUR('Steel - Satin',#1425);
#1425=COLOUR_RGB('Steel - Satin',0.627450980392157,0.627450980392157,0.627450980392157);
ENDSEC;
END-ISO-10303-21;
